<?xml version="1.0" encoding="utf-8"?>
<!-- Generator: Adobe Illustrator 21.1.0, SVG Export Plug-In . SVG Version: 6.00 Build 0)  -->
<svg version="1.1" id="Layer_1" xmlns="http://www.w3.org/2000/svg" xmlns:xlink="http://www.w3.org/1999/xlink" x="0px" y="0px"
	 viewBox="0 0 96 96" style="enable-background:new 0 0 96 96;" xml:space="preserve">
<style type="text/css">
	.st0{fill:none;}
	.st1{fill:#08D1A7;}
	.st2{fill:#08D1A7;stroke:#FFFFFF;stroke-width:2;stroke-miterlimit:10;}
	.st3{fill:#FFFFFF;}
</style>
<g>
	<g>
		<g>
			<path class="st0" d="M0,96V0h96v96H0z"/>
			<g>
				<g id="surface1">
					<path class="st1" d="M16,20c-4.4,0-8,3.6-8,8v40c0,4.4,3.6,8,8,8h64c4.4,0,8-3.6,8-8V28c0-4.4-3.6-8-8-8H16z M16,28h12v8H16V28
						z M56,28c11.2,0,20,8.8,20,20s-8.8,20-20,20s-20-8.8-20-20S44.8,28,56,28z M56,34c-7.7,0-14,6.3-14,14s6.3,14,14,14
						s14-6.3,14-14S63.7,34,56,34z"/>
				</g>
			</g>
		</g>
	</g>
</g>
<ellipse transform="matrix(0.7635 -0.6459 0.6459 0.7635 -2.119 54.0916)" class="st2" cx="72.8" cy="29.9" rx="21" ry="21"/>
<rect x="70.8" y="18.1" transform="matrix(2.148128e-02 -0.9998 0.9998 2.148128e-02 41.3799 101.8241)" class="st3" width="3.8" height="23.3"/>
<rect x="60.9" y="28" transform="matrix(2.148128e-02 -0.9998 0.9998 2.148128e-02 41.1854 101.7829)" class="st3" width="23.3" height="3.8"/>
</svg>
